<svg id="Layer_1" enable-background="new 0 0 128 128" viewBox="0 0 128 128" xmlns="http://www.w3.org/2000/svg"><g><path d="m112.1 24.9h-96.2c-1 0-1.8.8-1.8 1.8v74.6c0 1 .8 1.8 1.8 1.8h82.1c.5 0 .9-.2 1.2-.5l14.1-14.1c.3-.3.5-.8.5-1.2v-60.6c0-1-.7-1.8-1.7-1.8zm-1.8 3.5v13.4h-92.7v-13.4zm-92.7 16.9h92.7v40.1h-12.3c-1 0-1.7.8-1.8 1.7v12.3h-78.6zm90.3 43.7-8.1 8.1v-8.1z"/><path d="m26.9 38c1.6 0 2.9-1.3 2.9-2.9s-1.3-2.9-2.9-2.9-2.9 1.3-2.9 2.9 1.3 2.9 2.9 2.9z"/><path d="m38.6 38c1.6 0 2.9-1.3 2.9-2.9s-1.3-2.9-2.9-2.9-2.9 1.3-2.9 2.9 1.3 2.9 2.9 2.9z"/><path d="m50.3 38c1.6 0 2.9-1.3 2.9-2.9s-1.3-2.9-2.9-2.9-2.9 1.3-2.9 2.9 1.3 2.9 2.9 2.9z"/><path d="m47.3 59.2-10.3 15.1v4h9.7v4.7h4.4v-4.8h2.9v-4h-2.9v-15zm-.5 15.1h-5.5l5.5-8.1z"/><path d="m64 83.4c2.1 0 4.1-.8 5.4-2.4 1.6-2 2.3-5.2 2.3-9.7s-.8-7.7-2.3-9.7c-1.4-1.6-3.4-2.5-5.4-2.5-2.8 0-4.6 1.3-5.5 2.5-1.4 2.1-2.2 5.1-2.2 9.5 0 4.6.7 7.7 2.1 9.5 1.3 1.9 3.4 2.8 5.6 2.8zm-2.5-18c.3-1.1 1-2.4 2.5-2.4 1.8 0 2.4 1.8 2.5 2.6.4 1.9.4 3.8.4 5.7 0 2-.1 4-.5 5.9-.1.7-.5 1.4-1 1.9-.9.7-2.1.7-2.9 0-.6-.6-.9-1.3-1.1-2.1-.4-1.9-.4-3.8-.4-5.7 0-2 .1-4 .5-5.9z"/><path d="m84.2 59.2-10.3 15.1v4h9.7v4.7h4.4v-4.8h3v-4h-3v-15zm-.6 15.1h-5.5l5.5-8.1z"/></g></svg>